PathFileType	3	(X/Y/Z)	C:\Files\Projects\EMG to Moment Estimation\Newest Patten Data\NSFproject\Patient 4\Session 1\Patient4_Static01.TRC
DataRate	CameraRate	NumFrames	NumMarkers	Units	OrigDataRate	OrigDataStartFrame	OrigNumFrames
100.0	100.0	4	47	mm	100.0	228	910	
Frame#	Time	Sacral		Lumbar		L.Shoulder		Chest		R.Shoulder		Neck		R.ASIS		L.ASIS		R.Thigh.Superior		R.Thigh.Lateral		R.Thigh.Inferior		R.Knee.Lateral		R.Patella		R.Knee.Medial		L.Thigh.Superior		L.Thigh.Lateral		L.Thigh.Inferior		L.Patella		L.Knee.Medial		L.Knee.Lateral		L.Shank.Superior		L.Shank.Lateral		L.Shank.Inferior		L.Ankle.Medial		L.Ankle.Lateral		R.Shank.Superior		R.Shank.Lateral		R.Shank.Inferior		R.Ankle.Lateral		R.Ankle.Medial		R.Heel		R.Midfoot.Superior		R.Midfoot.Lateral		R.Toe.Lateral		R.Toe.Medial		R.Toe		L.Heel		L.Midfoot.Lateral		L.Toe.Lateral		L.Midfoot.Superior		L.Toe		L.Toe.Medial		L.Elbow		L.Wrist		R.Elbow		R.Wrist		Ground		
		X1	Y1	Z1	X2	Y2	Z2	X3	Y3	Z3	X4	Y4	Z4	X5	Y5	Z5	X6	Y6	Z6	X7	Y7	Z7	X8	Y8	Z8	X9	Y9	Z9	X10	Y10	Z10	X11	Y11	Z11	X12	Y12	Z12	X13	Y13	Z13	X14	Y14	Z14	X15	Y15	Z15	X16	Y16	Z16	X17	Y17	Z17	X18	Y18	Z18	X19	Y19	Z19	X20	Y20	Z20	X21	Y21	Z21	X22	Y22	Z22	X23	Y23	Z23	X24	Y24	Z24	X25	Y25	Z25	X26	Y26	Z26	X27	Y27	Z27	X28	Y28	Z28	X29	Y29	Z29	X30	Y30	Z30	X31	Y31	Z31	X32	Y32	Z32	X33	Y33	Z33	X34	Y34	Z34	X35	Y35	Z35	X36	Y36	Z36	X37	Y37	Z37	X38	Y38	Z38	X39	Y39	Z39	X40	Y40	Z40	X41	Y41	Z41	X42	Y42	Z42	X43	Y43	Z43	X44	Y44	Z44	X45	Y45	Z45	X46	Y46	Z46	X47	Y47	Z47	
228	2.270	  642.55109	  996.02545	  515.85779	  655.32465	 1063.58780	  513.66620	  751.84033	 1441.74830	  347.97400	  857.77869	 1379.08000	  508.62939	  767.46484	 1433.90270	  685.55035	  730.92432	 1496.33620	  502.76859	  880.26953	  947.34546	  632.92603	  859.76282	  972.61353	  355.89096	  905.39349	  740.21155	  602.07001	  817.48639	  638.80908	  670.49365	  880.66376	  575.67529	  590.05634	  830.10449	  486.68527	  652.32220	  871.26221	  486.98343	  596.06726	  808.75366	  463.59827	  544.20062	  889.64661	  748.35291	  363.29694	  782.28455	  651.04211	  296.83255	  855.66553	  557.10315	  346.33603	  847.76337	  487.97226	  349.37500	  815.38293	  490.18988	  397.92401	  802.27283	  510.20908	  297.73047	  822.30402	  420.68021	  331.51636	  731.35083	  315.47995	  265.50555	  780.80145	  194.83676	  321.84317	  741.15961	   96.59953	  365.09064	  717.24542	   85.15665	  277.31201	  840.49542	  400.32965	  611.20062	  772.29303	  305.14542	  688.98236	  798.12103	  204.23820	  624.14514	  735.16833	   85.11414	  669.31921	  748.51935	  105.95515	  577.33826	  652.38879	   43.98691	  625.13153	  827.64893	   97.72995	  630.59113	  747.04846	   37.04467	  684.26367	  833.52325	   31.71887	  696.00934	  858.91614	   29.26160	  576.92084	  950.59021	   44.48061	  639.16724	  650.46375	   38.26964	  333.69431	  734.93866	   35.24112	  263.90164	  830.09344	   33.48541	  242.37115	  813.44952	   96.32304	  300.55563	  944.45593	   45.25007	  291.44080	  855.21210	   27.39088	  357.26019	  748.12445	 1083.84560	  237.78490	  788.80688	  827.04608	  236.57832	  748.35547	 1076.03710	  773.61932	  808.91138	  823.89557	  747.45227	  146.58832	    9.66969	  329.04739	
229	2.280	  642.61462	  996.03510	  515.85486	  655.35333	 1063.57570	  513.66718	  751.88489	 1441.73120	  347.98169	  857.82947	 1379.06900	  508.61453	  767.54626	 1433.89280	  685.55353	  730.99402	 1496.32350	  502.78442	  880.33386	  947.35083	  632.95776	  859.82104	  972.57428	  355.89996	  905.44141	  740.19226	  602.06628	  817.33429	  638.70715	  670.25812	  880.70978	  575.64185	  590.07123	  830.14063	  486.69397	  652.33319	  871.29150	  486.97568	  596.03314	  808.77930	  463.58371	  544.18896	  889.71448	  748.35699	  363.30603	  782.34955	  651.00836	  296.84589	  855.73010	  557.07751	  346.34216	  847.82581	  487.94122	  349.37646	  815.45398	  490.16296	  397.95663	  802.34619	  510.17719	  297.73395	  822.36890	  420.66931	  331.52094	  731.40851	  315.47696	  265.52216	  780.81818	  194.82918	  321.82986	  741.16071	   96.58787	  365.07858	  717.24066	   85.16328	  277.30267	  840.54907	  400.33698	  611.20404	  772.30902	  305.10144	  688.99463	  798.14008	  204.23285	  624.14240	  735.16565	   85.11417	  669.30035	  748.52332	  105.99212	  577.28412	  652.38843	   43.95538	  625.10339	  827.61401	   97.67754	  630.54529	  747.06836	   37.03346	  684.25702	  833.54688	   31.71729	  695.97345	  858.91180	   29.25032	  576.91376	  950.58582	   44.47894	  639.14008	  650.46820	   38.26553	  333.68521	  734.91992	   35.23364	  263.89932	  830.08832	   33.46727	  242.37762	  813.43671	   96.29866	  300.56174	  944.45660	   45.22590	  291.42511	  855.23145	   27.37561	  357.27527	  748.20105	 1083.82320	  237.80501	  788.89221	  827.02753	  236.57802	  748.40375	 1076.02580	  773.65033	  809.01862	  823.87183	  747.45734	  146.59010	    9.65402	  329.04990	
230	2.290	  642.69714	  996.04315	  515.89044	  655.42889	 1063.55260	  513.68304	  751.93799	 1441.71890	  347.99710	  857.88525	 1379.07280	  508.63217	  767.62439	 1433.88950	  685.54865	  731.04926	 1496.31840	  502.75809	  880.38977	  947.36102	  632.99438	  859.91437	  972.57379	  355.89017	  905.49432	  740.17206	  602.08826	  817.58978	  638.79779	  670.55646	  880.74432	  575.63220	  590.09100	  830.17786	  486.67990	  652.35309	  871.33075	  486.96371	  596.06354	  808.81140	  463.57803	  544.21069	  889.78931	  748.33893	  363.32581	  782.43085	  651.00104	  296.86359	  855.79956	  557.07202	  346.36481	  847.90167	  487.93500	  349.39471	  815.51733	  490.16656	  397.96008	  802.40375	  510.17975	  297.75400	  822.42963	  420.63803	  331.54108	  731.44141	  315.49210	  265.52243	  780.83844	  194.79311	  321.83685	  741.15009	   96.57452	  365.09641	  717.25940	   85.16972	  277.29962	  840.56067	  400.31665	  611.19330	  772.35675	  305.10120	  689.00690	  798.14685	  204.21611	  624.13226	  735.16168	   85.10514	  669.31281	  748.50934	  105.95464	  577.30548	  652.39777	   43.96899	  625.10748	  827.62878	   97.72346	  630.58380	  747.07629	   37.04773	  684.24017	  833.53503	   31.71106	  695.98602	  858.91852	   29.23539	  576.91107	  950.59467	   44.47404	  639.14471	  650.46600	   38.28153	  333.68732	  734.91937	   35.23875	  263.90567	  830.09894	   33.49829	  242.36601	  813.44025	   96.28693	  300.55991	  944.45856	   45.23306	  291.43057	  855.20148	   27.35710	  357.20706	  748.27332	 1083.80900	  237.80690	  788.96454	  826.99078	  236.60654	  748.49194	 1076.08250	  773.70624	  809.06873	  823.86932	  747.49268	  146.59325	    9.66353	  329.05301	
231	2.300	  642.73053	  996.03754	  515.88416	  655.53931	 1063.53330	  513.71307	  751.98639	 1441.72240	  347.99976	  857.93689	 1379.08400	  508.63684	  767.68176	 1433.91240	  685.57367	  731.09039	 1496.30980	  502.79404	  880.46661	  947.37482	  633.01532	  859.98346	  972.58514	  355.91641	  905.55536	  740.19067	  602.11993	  817.71411	  638.83337	  670.65778	  880.78009	  575.61804	  590.11469	  830.19824	  486.67508	  652.35730	  871.36334	  486.95895	  596.08234	  808.86292	  463.59021	  544.21289	  889.86371	  748.34283	  363.33530	  782.51624	  651.01099	  296.87796	  855.85931	  557.07275	  346.37015	  847.95801	  487.90134	  349.42297	  815.56348	  490.12534	  397.98038	  802.46533	  510.18356	  297.77252	  822.48413	  420.64658	  331.56229	  731.48529	  315.49045	  265.55551	  780.85571	  194.81763	  321.87241	  741.15741	   96.57143	  365.08655	  717.24744	   85.19701	  277.30240	  840.61224	  400.32880	  611.21265	  772.39844	  305.11685	  689.02020	  798.18213	  204.22626	  624.15179	  735.17352	   85.11327	  669.31287	  748.54285	  105.98512	  577.31195	  652.39874	   43.98693	  625.10718	  827.65338	   97.71074	  630.59430	  747.09979	   37.08329	  684.30670	  833.53162	   31.69673	  695.98517	  858.91742	   29.23766	  576.91040	  950.58936	   44.47823	  639.16040	  650.46429	   38.29550	  333.70746	  734.92517	   35.24335	  263.92029	  830.10162	   33.47228	  242.39218	  813.44678	   96.31716	  300.56241	  944.46667	   45.24383	  291.43393	  855.21289	   27.38697	  357.24258	  748.37640	 1083.79980	  237.83063	  789.05743	  827.00507	  236.64420	  748.50116	 1076.02930	  773.69629	  809.12933	  823.85852	  747.51483	  146.58638	    9.65281	  329.04752	
